<svg width="842" height="595" viewBox="0 0 842 595" fill="none" xmlns="http://www.w3.org/2000/svg">
<g clip-path="url(#clip0_6850_27757)">
<rect width="595" height="842" transform="translate(0 595) rotate(-90)" fill="white"/>
<rect x="40" y="41" width="762" height="513" stroke="black" stroke-width="2"/>
<g opacity="0.4">
<rect x="749" y="478" width="5.96328" height="5.96328" rx="1.34409" fill="#6C6C70"/>
<rect x="772.854" y="478" width="5.96328" height="5.96328" rx="1.34409" fill="#6C6C70"/>
<rect x="796.708" y="478" width="5.96328" height="5.96328" rx="1.34409" fill="#6C6C70"/>
<rect x="820.559" y="478" width="5.96328" height="5.96328" rx="1.34409" fill="#6C6C70"/>
<rect x="749" y="501.853" width="5.96328" height="5.96328" rx="1.34409" fill="#6C6C70"/>
<rect x="772.854" y="501.853" width="5.96328" height="5.96328" rx="1.34409" fill="#6C6C70"/>
<rect x="796.708" y="501.853" width="5.96328" height="5.96328" rx="1.34409" fill="#6C6C70"/>
<rect x="820.559" y="501.853" width="5.96328" height="5.96328" rx="1.34409" fill="#6C6C70"/>
<rect x="749" y="525.706" width="5.96328" height="5.96328" rx="1.34409" fill="#6C6C70"/>
<rect x="772.854" y="525.706" width="5.96328" height="5.96328" rx="1.34409" fill="#6C6C70"/>
<rect x="796.708" y="525.706" width="5.96328" height="5.96328" rx="1.34409" fill="#6C6C70"/>
<rect x="820.559" y="525.706" width="5.96328" height="5.96328" rx="1.34409" fill="#6C6C70"/>
<rect x="749" y="549.559" width="5.96328" height="5.96328" rx="1.34409" fill="#6C6C70"/>
<rect x="772.854" y="549.559" width="5.96328" height="5.96328" rx="1.34409" fill="#6C6C70"/>
<rect x="796.708" y="549.559" width="5.96328" height="5.96328" rx="1.34409" fill="#6C6C70"/>
<rect x="820.559" y="549.559" width="5.96328" height="5.96328" rx="1.34409" fill="#6C6C70"/>
<rect x="749" y="573.412" width="5.96328" height="5.96328" rx="1.34409" fill="#6C6C70"/>
<rect x="772.854" y="573.412" width="5.96328" height="5.96328" rx="1.34409" fill="#6C6C70"/>
<path d="M796.708 574.757C796.708 574.014 797.31 573.412 798.052 573.412H801.327C802.07 573.412 802.671 574.014 802.671 574.757V578.032C802.671 578.774 802.07 579.376 801.327 579.376H798.052C797.31 579.376 796.708 578.774 796.708 578.032V574.757Z" fill="#6C6C70"/>
<rect x="820.559" y="573.412" width="5.96328" height="5.96328" rx="1.34409" fill="#6C6C70"/>
</g>
<g opacity="0.4">
<rect x="12.1191" y="7.26562" width="5.96328" height="5.96328" rx="1.34409" fill="#6C6C70"/>
<rect x="35.9727" y="7.26562" width="5.96328" height="5.96328" rx="1.34409" fill="#6C6C70"/>
<rect x="59.8242" y="7.26562" width="5.96328" height="5.96328" rx="1.34409" fill="#6C6C70"/>
<rect x="83.6777" y="7.26562" width="5.96328" height="5.96328" rx="1.34409" fill="#6C6C70"/>
<rect x="12.1191" y="31.1188" width="5.96328" height="5.96328" rx="1.34409" fill="#6C6C70"/>
<rect x="12.1191" y="54.1243" width="5.96328" height="5.96328" rx="1.34409" fill="#6C6C70"/>
<rect x="12.1191" y="77.1296" width="5.96328" height="5.96328" rx="1.34409" fill="#6C6C70"/>
<rect x="12.1191" y="100.135" width="5.96328" height="5.96328" rx="1.34409" fill="#6C6C70"/>
<rect x="35.9727" y="31.1188" width="5.96328" height="5.96328" rx="1.34409" fill="#6C6C70"/>
<rect x="35.9727" y="54.1243" width="5.96328" height="5.96328" rx="1.34409" fill="#6C6C70"/>
<rect x="35.9727" y="77.1296" width="5.96328" height="5.96328" rx="1.34409" fill="#6C6C70"/>
<rect x="35.9727" y="100.135" width="5.96328" height="5.96328" rx="1.34409" fill="#6C6C70"/>
<rect x="59.8242" y="31.1188" width="5.96328" height="5.96328" rx="1.34409" fill="#6C6C70"/>
<rect x="59.8242" y="54.1243" width="5.96328" height="5.96328" rx="1.34409" fill="#6C6C70"/>
<rect x="59.8242" y="77.1296" width="5.96328" height="5.96328" rx="1.34409" fill="#6C6C70"/>
<rect x="59.8242" y="100.135" width="5.96328" height="5.96328" rx="1.34409" fill="#6C6C70"/>
<rect x="83.6777" y="31.1188" width="5.96328" height="5.96328" rx="1.34409" fill="#6C6C70"/>
<rect x="83.6777" y="54.1243" width="5.96328" height="5.96328" rx="1.34409" fill="#6C6C70"/>
<rect x="83.6777" y="77.1296" width="5.96328" height="5.96328" rx="1.34409" fill="#6C6C70"/>
<rect x="83.6777" y="100.135" width="5.96328" height="5.96328" rx="1.34409" fill="#6C6C70"/>
</g>
<path d="M279.665 182.158V180.18H283.414C284.211 180.18 284.871 180.027 285.392 179.72C285.913 179.398 286.304 178.969 286.565 178.432C286.841 177.895 286.979 177.297 286.979 176.638C286.979 175.963 286.841 175.358 286.565 174.821C286.304 174.284 285.913 173.863 285.392 173.556C284.871 173.249 284.211 173.096 283.414 173.096H279.665V171.118H283C284.38 171.118 285.53 171.34 286.45 171.785C287.385 172.214 288.091 172.828 288.566 173.625C289.041 174.422 289.279 175.365 289.279 176.454V176.822C289.279 177.895 289.041 178.838 288.566 179.651C288.091 180.448 287.385 181.069 286.45 181.514C285.53 181.943 284.38 182.158 283 182.158H279.665ZM277.871 188V171.118H280.125V188H277.871ZM292.083 188V171.118H294.337V188H292.083ZM302.456 188L296.89 180.525H299.535L305.193 188H302.456ZM293.486 181.928V179.927H297.994C298.699 179.927 299.305 179.781 299.811 179.49C300.317 179.199 300.708 178.8 300.984 178.294C301.26 177.773 301.398 177.182 301.398 176.523C301.398 175.864 301.26 175.281 300.984 174.775C300.708 174.254 300.317 173.847 299.811 173.556C299.305 173.249 298.699 173.096 297.994 173.096H293.486V171.118H297.58C298.807 171.118 299.88 171.302 300.8 171.67C301.72 172.038 302.433 172.605 302.939 173.372C303.445 174.139 303.698 175.128 303.698 176.339V176.707C303.698 177.918 303.437 178.907 302.916 179.674C302.41 180.441 301.697 181.008 300.777 181.376C299.872 181.744 298.807 181.928 297.58 181.928H293.486ZM314.939 188.414C313.436 188.414 312.141 188.146 311.052 187.609C309.963 187.072 309.066 186.367 308.361 185.493C307.656 184.619 307.127 183.684 306.774 182.687C306.437 181.69 306.268 180.732 306.268 179.812V179.306C306.268 178.309 306.444 177.305 306.797 176.293C307.15 175.281 307.686 174.361 308.407 173.533C309.128 172.69 310.025 172.015 311.098 171.509C312.187 171.003 313.467 170.75 314.939 170.75C316.411 170.75 317.684 171.003 318.757 171.509C319.846 172.015 320.75 172.69 321.471 173.533C322.192 174.361 322.728 175.281 323.081 176.293C323.434 177.305 323.61 178.309 323.61 179.306V179.812C323.61 180.732 323.434 181.69 323.081 182.687C322.744 183.684 322.222 184.619 321.517 185.493C320.812 186.367 319.915 187.072 318.826 187.609C317.737 188.146 316.442 188.414 314.939 188.414ZM314.939 186.344C315.92 186.344 316.802 186.16 317.584 185.792C318.381 185.424 319.056 184.926 319.608 184.297C320.16 183.653 320.582 182.932 320.873 182.135C321.164 181.322 321.31 180.471 321.31 179.582C321.31 178.647 321.164 177.773 320.873 176.96C320.582 176.147 320.16 175.434 319.608 174.821C319.056 174.192 318.381 173.702 317.584 173.349C316.802 172.996 315.92 172.82 314.939 172.82C313.958 172.82 313.068 172.996 312.271 173.349C311.489 173.702 310.822 174.192 310.27 174.821C309.718 175.434 309.296 176.147 309.005 176.96C308.714 177.773 308.568 178.647 308.568 179.582C308.568 180.471 308.714 181.322 309.005 182.135C309.296 182.932 309.718 183.653 310.27 184.297C310.822 184.926 311.489 185.424 312.271 185.792C313.068 186.16 313.958 186.344 314.939 186.344ZM333.465 188.414C331.947 188.414 330.667 188.123 329.624 187.54C328.597 186.942 327.815 186.114 327.278 185.056C326.757 183.983 326.496 182.741 326.496 181.33V171.21H328.75V181.606C328.75 182.541 328.927 183.369 329.279 184.09C329.647 184.795 330.184 185.347 330.889 185.746C331.595 186.145 332.453 186.344 333.465 186.344C334.477 186.344 335.328 186.152 336.018 185.769C336.724 185.37 337.253 184.818 337.605 184.113C337.973 183.392 338.157 182.557 338.157 181.606V171.21H340.411V181.33C340.411 182.741 340.151 183.983 339.629 185.056C339.108 186.114 338.334 186.942 337.306 187.54C336.279 188.123 334.999 188.414 333.465 188.414ZM346.261 188.092V186.022H350.447C351.459 186.022 352.356 185.861 353.138 185.539C353.935 185.202 354.61 184.742 355.162 184.159C355.729 183.576 356.158 182.894 356.45 182.112C356.741 181.33 356.887 180.487 356.887 179.582C356.887 178.631 356.741 177.773 356.45 177.006C356.158 176.224 355.729 175.549 355.162 174.982C354.61 174.399 353.935 173.955 353.138 173.648C352.356 173.341 351.459 173.188 350.447 173.188H346.261V171.118H350.217C351.735 171.118 353.053 171.356 354.173 171.831C355.292 172.291 356.22 172.92 356.956 173.717C357.707 174.499 358.267 175.381 358.635 176.362C359.003 177.328 359.187 178.317 359.187 179.329V179.835C359.187 180.816 359.003 181.798 358.635 182.779C358.267 183.76 357.707 184.65 356.956 185.447C356.22 186.244 355.292 186.888 354.173 187.379C353.053 187.854 351.735 188.092 350.217 188.092H346.261ZM344.467 188.092V171.118H346.721V188.092H344.467ZM362.16 188V171.21H364.414V188H362.16ZM363.954 188V185.976H371.636V188H363.954ZM375.505 181.468L370.169 171.21H372.515L377.023 179.996L376.149 179.743H378.863L377.943 179.996L382.175 171.21H384.383L379.369 181.468H375.505ZM376.333 188V181.008H378.541V188H376.333ZM393.271 182.158V180.18H397.02C397.817 180.18 398.476 180.027 398.998 179.72C399.519 179.398 399.91 178.969 400.171 178.432C400.447 177.895 400.585 177.297 400.585 176.638C400.585 175.963 400.447 175.358 400.171 174.821C399.91 174.284 399.519 173.863 398.998 173.556C398.476 173.249 397.817 173.096 397.02 173.096H393.271V171.118H396.606C397.986 171.118 399.136 171.34 400.056 171.785C400.991 172.214 401.696 172.828 402.172 173.625C402.647 174.422 402.885 175.365 402.885 176.454V176.822C402.885 177.895 402.647 178.838 402.172 179.651C401.696 180.448 400.991 181.069 400.056 181.514C399.136 181.943 397.986 182.158 396.606 182.158H393.271ZM391.477 188V171.118H393.731V188H391.477ZM405.688 188V171.118H407.942V188H405.688ZM416.061 188L410.495 180.525H413.14L418.798 188H416.061ZM407.091 181.928V179.927H411.599C412.305 179.927 412.91 179.781 413.416 179.49C413.922 179.199 414.313 178.8 414.589 178.294C414.865 177.773 415.003 177.182 415.003 176.523C415.003 175.864 414.865 175.281 414.589 174.775C414.313 174.254 413.922 173.847 413.416 173.556C412.91 173.249 412.305 173.096 411.599 173.096H407.091V171.118H411.185C412.412 171.118 413.485 171.302 414.405 171.67C415.325 172.038 416.038 172.605 416.544 173.372C417.05 174.139 417.303 175.128 417.303 176.339V176.707C417.303 177.918 417.043 178.907 416.521 179.674C416.015 180.441 415.302 181.008 414.382 181.376C413.478 181.744 412.412 181.928 411.185 181.928H407.091ZM421.293 188V171.21H423.547V188H421.293ZM423.087 188V185.976H431.229V188H423.087ZM423.087 180.479V178.455H430.516V180.479H423.087ZM423.087 173.234V171.21H430.999V173.234H423.087ZM439.855 188.414C438.46 188.414 437.272 188.184 436.29 187.724C435.309 187.264 434.558 186.628 434.036 185.815C433.515 185.002 433.254 184.082 433.254 183.055H435.508C435.508 183.561 435.639 184.067 435.899 184.573C436.175 185.079 436.628 185.501 437.256 185.838C437.9 186.175 438.767 186.344 439.855 186.344C440.867 186.344 441.695 186.198 442.339 185.907C442.983 185.6 443.459 185.209 443.765 184.734C444.072 184.243 444.225 183.714 444.225 183.147C444.225 182.457 443.926 181.89 443.328 181.445C442.73 180.985 441.856 180.701 440.706 180.594L438.843 180.433C437.356 180.31 436.168 179.85 435.278 179.053C434.389 178.256 433.944 177.205 433.944 175.902C433.944 174.875 434.19 173.978 434.68 173.211C435.186 172.444 435.884 171.846 436.773 171.417C437.663 170.972 438.698 170.75 439.878 170.75C441.044 170.75 442.071 170.965 442.96 171.394C443.85 171.823 444.54 172.429 445.03 173.211C445.536 173.978 445.789 174.898 445.789 175.971H443.535C443.535 175.434 443.405 174.928 443.144 174.453C442.899 173.978 442.508 173.587 441.971 173.28C441.435 172.973 440.737 172.82 439.878 172.82C439.05 172.82 438.36 172.966 437.808 173.257C437.272 173.548 436.865 173.932 436.589 174.407C436.329 174.867 436.198 175.365 436.198 175.902C436.198 176.515 436.436 177.06 436.911 177.535C437.387 178.01 438.092 178.286 439.027 178.363L440.89 178.524C442.04 178.616 443.029 178.861 443.857 179.26C444.701 179.643 445.345 180.165 445.789 180.824C446.249 181.468 446.479 182.242 446.479 183.147C446.479 184.174 446.203 185.087 445.651 185.884C445.099 186.681 444.325 187.302 443.328 187.747C442.332 188.192 441.174 188.414 439.855 188.414ZM449.762 188V171.21H452.016V188H449.762ZM451.556 188V185.976H459.698V188H451.556ZM451.556 180.479V178.455H458.985V180.479H451.556ZM451.556 173.234V171.21H459.468V173.234H451.556ZM463.053 188V171.21H466.733L475.266 185.976H476.002L475.542 186.39V171.21H477.704V188H473.978L465.445 173.234H464.709L465.169 172.82V188H463.053ZM485.337 188V172.774H487.591V188H485.337ZM480.231 173.234V171.21H492.697V173.234H480.231ZM495.228 188V171.21H497.482V188H495.228ZM497.022 188V185.976H505.164V188H497.022ZM497.022 180.479V178.455H504.451V180.479H497.022ZM497.022 173.234V171.21H504.934V173.234H497.022ZM510.313 188.092V186.022H514.499C515.511 186.022 516.408 185.861 517.19 185.539C517.987 185.202 518.662 184.742 519.214 184.159C519.781 183.576 520.21 182.894 520.502 182.112C520.793 181.33 520.939 180.487 520.939 179.582C520.939 178.631 520.793 177.773 520.502 177.006C520.21 176.224 519.781 175.549 519.214 174.982C518.662 174.399 517.987 173.955 517.19 173.648C516.408 173.341 515.511 173.188 514.499 173.188H510.313V171.118H514.269C515.787 171.118 517.105 171.356 518.225 171.831C519.344 172.291 520.272 172.92 521.008 173.717C521.759 174.499 522.319 175.381 522.687 176.362C523.055 177.328 523.239 178.317 523.239 179.329V179.835C523.239 180.816 523.055 181.798 522.687 182.779C522.319 183.76 521.759 184.65 521.008 185.447C520.272 186.244 519.344 186.888 518.225 187.379C517.105 187.854 515.787 188.092 514.269 188.092H510.313ZM508.519 188.092V171.118H510.773V188.092H508.519ZM534.211 188V172.774H536.465V188H534.211ZM529.105 173.234V171.21H541.571V173.234H529.105ZM551.106 188.414C549.603 188.414 548.308 188.146 547.219 187.609C546.13 187.072 545.233 186.367 544.528 185.493C543.823 184.619 543.294 183.684 542.941 182.687C542.604 181.69 542.435 180.732 542.435 179.812V179.306C542.435 178.309 542.611 177.305 542.964 176.293C543.317 175.281 543.853 174.361 544.574 173.533C545.295 172.69 546.192 172.015 547.265 171.509C548.354 171.003 549.634 170.75 551.106 170.75C552.578 170.75 553.851 171.003 554.924 171.509C556.013 172.015 556.917 172.69 557.638 173.533C558.359 174.361 558.895 175.281 559.248 176.293C559.601 177.305 559.777 178.309 559.777 179.306V179.812C559.777 180.732 559.601 181.69 559.248 182.687C558.911 183.684 558.389 184.619 557.684 185.493C556.979 186.367 556.082 187.072 554.993 187.609C553.904 188.146 552.609 188.414 551.106 188.414ZM551.106 186.344C552.087 186.344 552.969 186.16 553.751 185.792C554.548 185.424 555.223 184.926 555.775 184.297C556.327 183.653 556.749 182.932 557.04 182.135C557.331 181.322 557.477 180.471 557.477 179.582C557.477 178.647 557.331 177.773 557.04 176.96C556.749 176.147 556.327 175.434 555.775 174.821C555.223 174.192 554.548 173.702 553.751 173.349C552.969 172.996 552.087 172.82 551.106 172.82C550.125 172.82 549.235 172.996 548.438 173.349C547.656 173.702 546.989 174.192 546.437 174.821C545.885 175.434 545.463 176.147 545.172 176.96C544.881 177.773 544.735 178.647 544.735 179.582C544.735 180.471 544.881 181.322 545.172 182.135C545.463 182.932 545.885 183.653 546.437 184.297C546.989 184.926 547.656 185.424 548.438 185.792C549.235 186.16 550.125 186.344 551.106 186.344ZM562.226 188V185.194H564.894V188H562.226ZM562.226 179.49V176.684H564.894V179.49H562.226Z" fill="#6C6C70"/>
<line x1="104" y1="462" x2="296" y2="462" stroke="#6C6C70" stroke-width="2"/>
<line x1="547" y1="462" x2="739" y2="462" stroke="#6C6C70" stroke-width="2"/>
<path d="M183.802 476.12C185.662 476.12 187.12 476.636 188.176 477.668C189.244 478.688 189.778 480.152 189.778 482.06C189.778 483.968 189.244 485.438 188.176 486.47C187.12 487.49 185.662 488 183.802 488H179.968V476.12H183.802ZM183.946 486.65C185.302 486.65 186.358 486.248 187.114 485.444C187.882 484.628 188.266 483.5 188.266 482.06C188.266 480.62 187.882 479.498 187.114 478.694C186.358 477.878 185.302 477.47 183.946 477.47H181.408V486.65H183.946ZM201.596 488H200.066L198.806 484.706H193.424L192.164 488H190.652L195.278 476.12H196.988L201.596 488ZM193.946 483.356H198.284L196.106 477.506L193.946 483.356ZM210.338 476.12V477.47H206.198V488H204.758V477.47H200.618V476.12H210.338ZM212.441 488V476.12H220.775V477.47H213.881V481.304H219.245V482.654H213.881V486.65H221.045V488H212.441Z" fill="black"/>
<path d="M600.18 475.94C601.224 475.94 602.124 476.156 602.88 476.588C603.636 477.008 604.266 477.632 604.77 478.46L603.564 479.396C603.12 478.628 602.616 478.088 602.052 477.776C601.5 477.452 600.828 477.29 600.036 477.29C599.4 477.29 598.872 477.38 598.452 477.56C598.044 477.74 597.744 477.98 597.552 478.28C597.36 478.568 597.264 478.898 597.264 479.27C597.264 479.69 597.396 480.062 597.66 480.386C597.924 480.698 598.452 480.944 599.244 481.124L601.818 481.7C602.958 481.952 603.75 482.336 604.194 482.852C604.65 483.356 604.878 483.986 604.878 484.742C604.878 485.414 604.686 486.014 604.302 486.542C603.93 487.058 603.402 487.46 602.718 487.748C602.034 488.036 601.23 488.18 600.306 488.18C599.442 488.18 598.68 488.066 598.02 487.838C597.372 487.598 596.814 487.28 596.346 486.884C595.878 486.488 595.494 486.044 595.194 485.552L596.454 484.526C596.682 484.982 596.976 485.384 597.336 485.732C597.696 486.08 598.128 486.35 598.632 486.542C599.148 486.734 599.736 486.83 600.396 486.83C601.008 486.83 601.536 486.758 601.98 486.614C602.436 486.458 602.784 486.236 603.024 485.948C603.264 485.648 603.384 485.288 603.384 484.868C603.384 484.484 603.258 484.142 603.006 483.842C602.754 483.53 602.28 483.296 601.584 483.14L598.794 482.51C598.062 482.342 597.468 482.114 597.012 481.826C596.568 481.526 596.244 481.178 596.04 480.782C595.848 480.374 595.752 479.936 595.752 479.468C595.752 478.832 595.926 478.25 596.274 477.722C596.634 477.182 597.144 476.75 597.804 476.426C598.476 476.102 599.268 475.94 600.18 475.94ZM608.927 476.12V488H607.487V476.12H608.927ZM617.194 488.18C616.066 488.18 615.088 487.934 614.26 487.442C613.444 486.938 612.808 486.23 612.352 485.318C611.908 484.406 611.686 483.32 611.686 482.06C611.686 480.8 611.92 479.714 612.388 478.802C612.868 477.89 613.534 477.188 614.386 476.696C615.238 476.192 616.216 475.94 617.32 475.94C618.496 475.94 619.45 476.162 620.182 476.606C620.926 477.05 621.526 477.734 621.982 478.658L620.668 479.378C620.404 478.694 619.984 478.178 619.408 477.83C618.844 477.47 618.148 477.29 617.32 477.29C616.516 477.29 615.802 477.482 615.178 477.866C614.566 478.238 614.08 478.784 613.72 479.504C613.372 480.212 613.198 481.064 613.198 482.06C613.198 483.056 613.348 483.914 613.648 484.634C613.96 485.342 614.416 485.888 615.016 486.272C615.628 486.644 616.372 486.83 617.248 486.83C617.74 486.83 618.196 486.77 618.616 486.65C619.048 486.518 619.42 486.326 619.732 486.074C620.056 485.822 620.308 485.504 620.488 485.12C620.668 484.736 620.758 484.286 620.758 483.77V483.356H616.978V482.006H622.072V488H620.938L620.866 485.786L621.172 485.84C620.86 486.584 620.368 487.16 619.696 487.568C619.024 487.976 618.19 488.18 617.194 488.18ZM634.347 476.12V488H632.565L627.597 480.044L626.337 477.812H626.319L626.391 479.612V488H625.023V476.12H626.805L631.755 484.04L633.033 486.326H633.051L632.979 484.508V476.12H634.347ZM647.302 488H645.772L644.512 484.706H639.13L637.87 488H636.358L640.984 476.12H642.694L647.302 488ZM639.652 483.356H643.99L641.812 477.506L639.652 483.356ZM656.043 476.12V477.47H651.903V488H650.463V477.47H646.323V476.12H656.043ZM667.237 476.12V483.572C667.237 485.096 666.835 486.248 666.031 487.028C665.227 487.796 664.075 488.18 662.575 488.18C661.087 488.18 659.935 487.796 659.119 487.028C658.315 486.248 657.913 485.096 657.913 483.572V476.12H659.353V483.212C659.353 484.448 659.611 485.36 660.127 485.948C660.655 486.536 661.471 486.83 662.575 486.83C663.679 486.83 664.489 486.536 665.005 485.948C665.533 485.36 665.797 484.448 665.797 483.212V476.12H667.237ZM674.983 476.12C676.195 476.12 677.167 476.432 677.899 477.056C678.631 477.68 678.997 478.526 678.997 479.594C678.997 480.662 678.625 481.496 677.881 482.096C677.149 482.684 676.177 482.978 674.965 482.978L674.839 483.068H671.923V488H670.483V476.12H674.983ZM674.965 481.718C675.817 481.718 676.447 481.544 676.855 481.196C677.275 480.836 677.485 480.302 677.485 479.594C677.485 478.886 677.275 478.358 676.855 478.01C676.447 477.65 675.817 477.47 674.965 477.47H671.923V481.718H674.965ZM675.793 482.006L679.717 488H678.007L674.587 482.798L675.793 482.006ZM682.045 488V476.12H690.379V477.47H683.485V481.304H688.849V482.654H683.485V486.65H690.649V488H682.045Z" fill="black"/>
<path d="M411.882 471.989L426.306 486.413L402.424 510.295L399.915 498.38L388 495.87L411.882 471.989Z" fill="#F84343"/>
<path d="M450.249 471.989L435.825 486.413L459.706 510.295L462.216 498.38L474.131 495.87L450.249 471.989Z" fill="#F84343"/>
<g filter="url(#filter0_d_6850_27757)">
<path d="M430.947 431L434.707 434.131L439.069 431.915L442.037 435.804L446.783 434.614L448.812 439.067L453.703 438.963L454.69 443.755L459.482 444.742L459.379 449.633L463.831 451.662L462.641 456.408L466.53 459.376L464.314 463.738L467.445 467.498L464.314 471.257L466.53 475.619L462.641 478.588L463.831 483.334L459.379 485.363L459.482 490.254L454.69 491.241L453.703 496.033L448.812 495.929L446.783 500.381L442.037 499.192L439.069 503.081L434.707 500.865L430.947 503.996L427.188 500.865L422.826 503.081L419.857 499.192L415.111 500.381L413.083 495.929L408.191 496.033L407.204 491.241L402.412 490.254L402.516 485.363L398.064 483.334L399.253 478.588L395.364 475.619L397.58 471.257L394.449 467.498L397.58 463.738L395.364 459.376L399.253 456.408L398.064 451.662L402.516 449.633L402.412 444.742L407.204 443.755L408.191 438.963L413.083 439.067L415.111 434.614L419.857 435.804L422.826 431.915L427.188 434.131L430.947 431Z" fill="#F84343"/>
</g>
<circle cx="431.023" cy="467.354" r="28.5555" fill="#FFD56A" stroke="#FFD56A" stroke-width="6"/>
<circle cx="430.609" cy="466.609" r="29.6088" fill="url(#paint0_linear_6850_27757)" stroke="#B38B24" stroke-width="2"/>
</g>
<defs>
<filter id="filter0_d_6850_27757" x="390.449" y="431" width="80.9961" height="80.9958" filterUnits="userSpaceOnUse" color-interpolation-filters="sRGB">
<feFlood flood-opacity="0" result="BackgroundImageFix"/>
<feColorMatrix in="SourceAlpha" type="matrix" values="0 0 0 0 0 0 0 0 0 0 0 0 0 0 0 0 0 0 127 0" result="hardAlpha"/>
<feOffset dy="4"/>
<feGaussianBlur stdDeviation="2"/>
<feComposite in2="hardAlpha" operator="out"/>
<feColorMatrix type="matrix" values="0 0 0 0 0 0 0 0 0 0 0 0 0 0 0 0 0 0 0.25 0"/>
<feBlend mode="normal" in2="BackgroundImageFix" result="effect1_dropShadow_6850_27757"/>
<feBlend mode="normal" in="SourceGraphic" in2="effect1_dropShadow_6850_27757" result="shape"/>
</filter>
<linearGradient id="paint0_linear_6850_27757" x1="410.459" y1="443.646" x2="453.268" y2="486.835" gradientUnits="userSpaceOnUse">
<stop stop-color="#EFC863"/>
<stop offset="0.520833" stop-color="#FFD772" stop-opacity="0.5"/>
<stop offset="1" stop-color="#EFC863"/>
</linearGradient>
<clipPath id="clip0_6850_27757">
<rect width="595" height="842" fill="white" transform="translate(0 595) rotate(-90)"/>
</clipPath>
</defs>
</svg>
