<svg width="48" height="48" viewBox="0 0 48 48" fill="none" xmlns="http://www.w3.org/2000/svg">
<mask id="mask0_6537_15758" style="mask-type:luminance" maskUnits="userSpaceOnUse" x="15" y="15" width="18" height="25">
<path d="M15.3828 39.1172H32.6169V15.3859H15.3828V39.1172Z" fill="white"/>
</mask>
<g mask="url(#mask0_6537_15758)">
<path d="M28.4272 31.374V38.3614C28.4272 38.7788 28.0888 39.1172 27.6714 39.1172H20.3278C19.9104 39.1172 19.5721 38.7788 19.5721 38.3614V31.374C17.0733 29.8675 15.3984 27.1276 15.3984 24.0029C15.3984 19.2603 19.2569 15.4019 23.9995 15.4019C28.7421 15.4019 32.6006 19.2606 32.6006 24.0029C32.6006 27.1273 30.9255 29.8673 28.4267 31.374H28.4272ZM21.0836 37.6059H26.9155V32.0943C26.0045 32.4234 25.0228 32.604 23.9998 32.604C22.9765 32.604 21.9946 32.4234 21.0835 32.0941L21.0836 37.6059ZM23.9996 16.9135C20.0905 16.9135 16.91 20.0938 16.91 24.0031C16.91 27.9122 20.0902 31.0927 23.9996 31.0927C27.9089 31.0927 31.0891 27.9124 31.0891 24.0031C31.0891 20.0938 27.9089 16.9135 23.9996 16.9135Z" fill="#19A68E"/>
</g>
<mask id="mask1_6537_15758" style="mask-type:luminance" maskUnits="userSpaceOnUse" x="8" y="23" width="7" height="2">
<path d="M8.88672 23.9997C8.88672 24.4227 9.22965 24.7656 9.65268 24.7656H13.2775C13.7005 24.7656 14.0435 24.4227 14.0435 23.9997C14.0435 23.5766 13.7005 23.2337 13.2775 23.2337H9.65268C9.22965 23.2337 8.88672 23.5766 8.88672 23.9997Z" fill="white"/>
</mask>
<g mask="url(#mask1_6537_15758)">
<path d="M14.0255 24.0021C14.0255 24.4195 13.6872 24.7578 13.2698 24.7578H9.64246C9.22507 24.7578 8.88672 24.4195 8.88672 24.0021C8.88672 23.5847 9.22507 23.2463 9.64246 23.2463H13.2698C13.6874 23.2463 14.0255 23.5844 14.0255 24.0021Z" fill="#19A68E"/>
</g>
<mask id="mask2_6537_15758" style="mask-type:luminance" maskUnits="userSpaceOnUse" x="33" y="23" width="7" height="2">
<path d="M33.957 24.7656H39.114V23.2337H33.957V24.7656Z" fill="white"/>
</mask>
<g mask="url(#mask2_6537_15758)">
<path d="M38.3596 24.7578H34.7323C34.3149 24.7578 33.9766 24.4195 33.9766 24.0021C33.9766 23.5847 34.3149 23.2463 34.7323 23.2463H38.3596C38.777 23.2463 39.1154 23.5847 39.1154 24.0021C39.1154 24.4195 38.777 24.7578 38.3596 24.7578Z" fill="#19A68E"/>
</g>
<mask id="mask3_6537_15758" style="mask-type:luminance" maskUnits="userSpaceOnUse" x="23" y="8" width="2" height="7">
<path d="M23.2344 14.0391H24.7663V8.88206H23.2344V14.0391Z" fill="white"/>
</mask>
<g mask="url(#mask3_6537_15758)">
<path d="M24.0018 14.0234C23.5844 14.0234 23.2461 13.6851 23.2461 13.2677V9.64038C23.2461 9.22299 23.5844 8.88463 24.0018 8.88463C24.4192 8.88463 24.7576 9.22298 24.7576 9.64038V13.2677C24.7576 13.6851 24.4195 14.0234 24.0018 14.0234Z" fill="#19A68E"/>
</g>
<path d="M15.8762 31.0513C16.0238 30.9037 16.2173 30.8301 16.4105 30.8301C16.604 30.8301 16.7975 30.9039 16.9448 31.0513C17.24 31.3462 17.24 31.8247 16.9448 32.1199L14.3799 34.6848C14.0849 34.9801 13.606 34.9801 13.3113 34.6848C13.016 34.3899 13.016 33.9114 13.3113 33.6162L15.8762 31.0513Z" fill="#19A68E"/>
<path d="M32.122 16.9427C31.8268 17.2379 31.3486 17.2379 31.0533 16.9427C30.7584 16.6474 30.7581 16.1692 31.0533 15.874L33.6183 13.3091C33.7659 13.1615 33.9594 13.0879 34.1526 13.0879C34.3461 13.0879 34.5393 13.1617 34.6869 13.3091C34.9821 13.6043 34.9821 14.0825 34.6869 14.3777L32.122 16.9427Z" fill="#19A68E"/>
<path d="M31.5878 30.8301C31.7812 30.8301 31.9745 30.9039 32.1221 31.0513L34.687 33.6162C34.9822 33.9112 34.9822 34.3896 34.687 34.6848C34.3918 34.9801 33.9136 34.9801 33.6184 34.6848L31.0534 32.1199C30.7582 31.8249 30.7582 31.3465 31.0534 31.0513C31.201 30.9037 31.3945 30.8301 31.5878 30.8301H31.5878Z" fill="#19A68E"/>
<path d="M15.8762 16.9425C15.8762 16.9425 15.8762 16.9425 15.8762 16.9425L13.3113 14.3775C13.016 14.0823 13.016 13.6041 13.3113 13.3089C13.4589 13.1613 13.6523 13.0877 13.8456 13.0877C14.0391 13.0877 14.2325 13.1615 14.3799 13.3089L16.9448 15.8738C17.2401 16.169 17.2401 16.6473 16.9448 16.9425C16.6501 17.2379 16.1712 17.2379 15.8762 16.9425C15.8762 16.9425 15.8762 16.9425 15.8762 16.9425Z" fill="#19A68E"/>
</svg>
