<svg width="24" height="24" viewBox="0 0 24 24" fill="none" xmlns="http://www.w3.org/2000/svg">
<path d="M12 16.5C14.4853 16.5 16.5 14.4853 16.5 12C16.5 9.51472 14.4853 7.5 12 7.5C9.51472 7.5 7.5 9.51472 7.5 12C7.5 14.4853 9.51472 16.5 12 16.5Z" stroke="#222222" stroke-width="1.5" stroke-linecap="round" stroke-linejoin="round"/>
<path d="M18.5071 7.56719C18.7328 7.89032 18.9304 8.23219 19.0978 8.58906L21.5259 9.93906C21.8291 11.297 21.8323 12.7048 21.5353 14.0641L19.0978 15.4141C18.9304 15.7709 18.7328 16.1128 18.5071 16.4359L18.554 19.2203C17.525 20.158 16.307 20.8645 14.9821 21.2922L12.5915 19.8578C12.1983 19.8859 11.8035 19.8859 11.4103 19.8578L9.02901 21.2828C7.69992 20.8629 6.47797 20.1592 5.44776 19.2203L5.49463 16.4453C5.27082 16.1177 5.07333 15.7729 4.90401 15.4141L2.47588 14.0641C2.17269 12.7061 2.16949 11.2984 2.46651 9.93906L4.90401 8.58906C5.07133 8.23219 5.26893 7.89032 5.49463 7.56719L5.44776 4.78281C6.4768 3.84509 7.69474 3.13863 9.01963 2.71094L11.4103 4.14531C11.8035 4.11718 12.1983 4.11718 12.5915 4.14531L14.9728 2.72031C16.3018 3.14021 17.5238 3.84396 18.554 4.78281L18.5071 7.56719Z" stroke="#222222" stroke-width="1.5" stroke-linecap="round" stroke-linejoin="round"/>
</svg>
